<?xml version="1.0" encoding="UTF-8" ?>
<!DOCTYPE svg PUBLIC "-//W3C//DTD SVG 1.1//EN" "http://www.w3.org/Graphics/SVG/1.1/DTD/svg11.dtd">
<svg width="232pt" height="232pt" viewBox="0 0 232 232" version="1.1" xmlns="http://www.w3.org/2000/svg">
<g id="#ffffffff">
</g>
<g id="#7a333fff">
<path fill="#7a333f" opacity="1.00" d=" M 75.64 28.98 C 92.87 24.65 111.67 25.59 128.25 32.08 C 125.53 32.06 122.73 32.43 120.10 31.56 C 112.04 28.74 103.37 30.00 95.02 30.02 C 88.55 29.85 81.95 30.90 75.64 28.98 Z" />
</g>
<g id="#8a303bff">
<path fill="#8a303b" opacity="1.00" d=" M 63.92 32.18 C 67.84 31.22 71.64 29.44 75.64 28.98 C 81.95 30.90 88.55 29.85 95.02 30.02 C 103.37 30.00 112.04 28.74 120.10 31.56 C 122.73 32.43 125.53 32.06 128.25 32.08 C 137.16 34.76 145.24 39.79 152.79 45.15 C 153.85 45.86 154.60 46.88 155.11 48.04 C 154.41 47.96 153.01 47.79 152.31 47.70 C 150.07 45.58 147.96 43.06 144.90 42.13 C 141.66 41.17 138.91 39.21 136.19 37.29 C 131.62 35.38 126.73 34.31 121.81 33.89 C 122.92 35.70 124.10 37.47 125.29 39.23 C 124.83 40.10 124.35 40.97 123.86 41.82 C 126.77 45.03 128.83 48.95 129.19 53.33 C 129.57 53.42 130.33 53.60 130.72 53.70 C 130.67 54.73 130.62 55.75 130.57 56.78 C 131.33 57.01 132.09 57.25 132.85 57.49 C 131.12 57.90 129.39 58.29 127.67 58.70 C 122.07 59.93 116.43 61.04 111.04 63.04 C 109.27 63.53 107.52 64.05 105.79 64.62 C 103.90 61.69 101.76 58.92 99.23 56.52 C 100.21 55.99 101.21 55.47 102.21 54.96 C 99.84 52.62 97.16 50.58 94.01 49.39 C 94.55 48.71 95.09 48.03 95.65 47.36 C 92.36 45.02 89.60 41.94 86.02 40.05 C 82.07 39.42 78.39 42.39 74.37 41.04 C 74.92 40.26 75.48 39.48 76.05 38.70 C 75.04 37.89 74.04 37.07 73.04 36.26 C 72.43 36.73 71.80 37.17 71.16 37.60 C 71.01 36.46 70.85 35.32 70.69 34.18 C 68.29 35.21 65.77 35.96 63.15 36.13 C 63.39 34.90 63.63 33.66 63.87 32.43 L 63.92 32.18 Z" />
</g>
<g id="#803444ff">
<path fill="#803444" opacity="1.00" d=" M 17.43 71.35 C 28.04 53.73 44.62 39.74 63.87 32.43 C 63.63 33.66 63.39 34.90 63.15 36.13 C 59.58 36.12 56.28 37.52 53.60 39.81 C 50.76 42.37 46.44 42.86 44.11 45.99 C 42.77 48.46 39.08 48.40 38.32 51.32 C 37.25 54.18 34.28 55.22 32.02 56.90 C 25.89 62.72 20.83 69.63 17.51 77.42 C 17.50 80.13 18.98 82.62 19.75 85.17 C 20.83 85.86 21.91 86.55 23.02 87.20 C 22.45 87.40 21.31 87.79 20.75 87.98 C 14.29 85.42 14.25 76.54 17.43 71.35 Z" />
<path fill="#803444" opacity="1.00" d=" M 22.35 174.46 C 23.97 174.92 25.57 175.44 27.16 175.97 C 27.11 179.96 31.79 181.65 31.71 185.59 C 27.92 182.49 25.17 178.40 22.35 174.46 Z" />
</g>
<g id="#9a3242ff">
<path fill="#9a3242" opacity="1.00" d=" M 63.15 36.13 C 65.77 35.96 68.29 35.21 70.69 34.18 C 70.85 35.32 71.01 36.46 71.16 37.60 C 71.80 37.17 72.43 36.73 73.04 36.26 C 74.04 37.07 75.04 37.89 76.05 38.70 C 75.48 39.48 74.92 40.26 74.37 41.04 C 78.39 42.39 82.07 39.42 86.02 40.05 C 89.60 41.94 92.36 45.02 95.65 47.36 C 95.09 48.03 94.55 48.71 94.01 49.39 C 97.16 50.58 99.84 52.62 102.21 54.96 C 101.21 55.47 100.21 55.99 99.23 56.52 C 101.76 58.92 103.90 61.69 105.79 64.62 C 103.36 65.53 101.17 66.92 99.02 68.35 C 98.56 68.53 97.65 68.88 97.19 69.06 C 96.96 69.14 96.51 69.29 96.29 69.37 C 92.23 71.27 88.42 73.69 84.25 75.34 L 84.74 76.23 C 81.29 75.86 78.41 78.42 75.23 79.37 C 74.21 79.23 73.20 79.06 72.20 78.88 C 75.28 75.70 79.32 73.72 83.82 73.91 C 85.86 72.14 87.85 70.31 89.79 68.43 C 90.41 67.85 91.02 67.26 91.64 66.68 C 88.19 66.06 88.12 62.56 86.99 59.93 C 85.34 57.75 83.09 56.11 81.09 54.28 C 80.35 54.85 79.61 55.40 78.85 55.95 C 75.50 54.38 72.18 52.31 71.20 48.48 C 67.60 48.55 64.30 47.18 60.99 45.97 C 58.16 46.04 55.81 48.16 52.97 48.29 C 51.14 48.38 49.30 48.25 47.47 48.17 C 47.60 47.14 47.70 46.11 47.77 45.08 C 47.12 45.73 46.42 46.30 45.65 46.80 C 45.26 46.60 44.50 46.19 44.11 45.99 C 46.44 42.86 50.76 42.37 53.60 39.81 C 56.28 37.52 59.58 36.12 63.15 36.13 Z" />
</g>
<g id="#9f3247ff">
<path fill="#9f3247" opacity="1.00" d=" M 121.81 33.89 C 126.73 34.31 131.62 35.38 136.19 37.29 C 133.55 38.43 131.16 40.27 131.99 43.47 C 133.68 43.94 135.60 43.95 137.10 44.93 C 138.46 47.14 135.65 49.43 136.17 51.77 C 136.73 54.09 138.07 56.10 139.19 58.17 C 135.36 58.42 131.51 58.60 127.67 58.70 C 129.39 58.29 131.12 57.90 132.85 57.49 C 132.09 57.25 131.33 57.01 130.57 56.78 C 130.62 55.75 130.67 54.73 130.72 53.70 C 130.33 53.60 129.57 53.42 129.19 53.33 C 128.83 48.95 126.77 45.03 123.86 41.82 C 124.35 40.97 124.83 40.10 125.29 39.23 C 124.10 37.47 122.92 35.70 121.81 33.89 Z" />
</g>
<g id="#b1344eff">
<path fill="#b1344e" opacity="1.00" d=" M 131.99 43.47 C 131.16 40.27 133.55 38.43 136.19 37.29 C 138.91 39.21 141.66 41.17 144.90 42.13 C 147.96 43.06 150.07 45.58 152.31 47.70 C 150.86 47.52 149.41 47.35 147.96 47.17 C 147.96 49.77 147.26 52.74 148.93 55.01 C 150.13 56.49 151.66 57.64 153.09 58.89 C 152.48 59.03 151.25 59.29 150.64 59.42 C 146.83 58.97 143.04 58.20 139.19 58.17 C 138.07 56.10 136.73 54.09 136.17 51.77 C 135.65 49.43 138.46 47.14 137.10 44.93 C 135.60 43.95 133.68 43.94 131.99 43.47 Z" />
</g>
<g id="#af344bff">
<path fill="#af344b" opacity="1.00" d=" M 45.65 46.80 C 46.42 46.30 47.12 45.73 47.77 45.08 C 47.70 46.11 47.60 47.14 47.47 48.17 C 49.30 48.25 51.14 48.38 52.97 48.29 C 55.81 48.16 58.16 46.04 60.99 45.97 C 64.30 47.18 67.60 48.55 71.20 48.48 C 72.18 52.31 75.50 54.38 78.85 55.95 C 79.61 55.40 80.35 54.85 81.09 54.28 C 83.09 56.11 85.34 57.75 86.99 59.93 C 88.12 62.56 88.19 66.06 91.64 66.68 C 91.02 67.26 90.41 67.85 89.79 68.43 C 87.85 70.31 85.86 72.14 83.82 73.91 C 79.32 73.72 75.28 75.70 72.20 78.88 C 73.20 79.06 74.21 79.23 75.23 79.37 C 74.35 79.68 73.46 79.95 72.56 80.17 C 71.00 79.97 69.43 79.76 67.87 79.55 C 70.30 78.15 71.96 75.84 73.48 73.54 L 72.07 73.08 C 72.32 72.83 72.82 72.32 73.07 72.07 C 72.39 71.32 71.70 70.59 70.99 69.87 C 69.14 70.47 67.32 71.42 65.35 71.49 C 62.91 70.33 60.84 68.24 58.02 68.05 C 55.26 67.71 52.52 67.20 49.97 66.05 C 46.98 67.35 43.90 68.42 40.79 69.41 C 38.55 73.41 32.59 70.34 30.34 74.38 C 28.47 76.75 30.45 79.46 31.73 81.56 C 28.29 81.59 24.35 81.34 22.05 84.42 C 23.94 85.45 25.83 86.49 27.68 87.59 C 26.13 87.48 24.57 87.40 23.02 87.20 C 21.91 86.55 20.83 85.86 19.75 85.17 C 18.98 82.62 17.50 80.13 17.51 77.42 C 20.83 69.63 25.89 62.72 32.02 56.90 C 34.28 55.22 37.25 54.18 38.32 51.32 C 39.08 48.40 42.77 48.46 44.11 45.99 C 44.50 46.19 45.26 46.60 45.65 46.80 Z" />
</g>
<g id="#c73457ff">
<path fill="#c73457" opacity="1.00" d=" M 147.96 47.17 C 149.41 47.35 150.86 47.52 152.31 47.70 C 153.01 47.79 154.41 47.96 155.11 48.04 C 154.85 48.80 154.69 49.58 154.63 50.38 C 156.14 53.32 159.91 53.58 162.06 55.84 C 164.29 58.20 165.91 61.06 167.45 63.90 C 165.74 63.83 164.03 63.76 162.32 63.75 C 162.12 62.61 161.91 61.46 161.71 60.32 C 158.00 60.24 154.30 59.98 150.64 59.42 C 151.25 59.29 152.48 59.03 153.09 58.89 C 151.66 57.64 150.13 56.49 148.93 55.01 C 147.26 52.74 147.96 49.77 147.96 47.17 Z" />
</g>
<g id="#a64860ff">
<path fill="#a64860" opacity="1.00" d=" M 155.11 48.04 L 155.44 46.91 C 161.58 52.35 167.46 58.18 172.17 64.93 C 172.27 65.52 172.46 66.70 172.56 67.29 L 171.27 66.79 C 169.93 65.92 168.68 64.92 167.45 63.90 C 165.91 61.06 164.29 58.20 162.06 55.84 C 159.91 53.58 156.14 53.32 154.63 50.38 C 154.69 49.58 154.85 48.80 155.11 48.04 Z" />
</g>
<g id="#b05057ff">
<path fill="#b05057" opacity="1.00" d=" M 127.67 58.70 C 131.51 58.60 135.36 58.42 139.19 58.17 C 143.04 58.20 146.83 58.97 150.64 59.42 C 154.30 59.98 158.00 60.24 161.71 60.32 C 161.91 61.46 162.12 62.61 162.32 63.75 C 156.54 63.99 150.76 63.16 144.99 63.79 C 139.68 64.33 134.34 63.89 129.02 63.87 C 123.02 63.72 116.92 64.60 111.04 63.04 C 116.43 61.04 122.07 59.93 127.67 58.70 Z" />
</g>
<g id="#b6666aff">
<path fill="#b6666a" opacity="1.00" d=" M 105.79 64.62 C 107.52 64.05 109.27 63.53 111.04 63.04 C 116.92 64.60 123.02 63.72 129.02 63.87 C 134.34 63.89 139.68 64.33 144.99 63.79 C 150.76 63.16 156.54 63.99 162.32 63.75 C 164.03 63.76 165.74 63.83 167.45 63.90 C 168.68 64.92 169.93 65.92 171.27 66.79 C 168.10 66.85 165.17 68.38 161.99 68.30 C 147.65 68.22 133.32 68.27 118.98 68.23 C 116.02 68.19 113.08 67.85 110.15 67.50 C 106.41 66.92 102.74 68.14 99.02 68.35 C 101.17 66.92 103.36 65.53 105.79 64.62 Z" />
</g>
<g id="#c78383ff">
<path fill="#c78383" opacity="1.00" d=" M 172.17 64.93 C 173.94 67.23 175.47 69.73 176.66 72.39 C 176.07 73.41 175.21 74.00 174.08 74.13 C 165.12 75.42 156.06 74.90 147.04 75.05 C 139.73 75.10 132.40 75.55 125.12 74.76 C 122.01 74.33 118.99 75.43 115.91 75.56 C 113.71 75.31 111.53 74.50 109.29 75.03 C 105.06 73.46 101.09 71.30 97.19 69.06 C 97.65 68.88 98.56 68.53 99.02 68.35 C 102.74 68.14 106.41 66.92 110.15 67.50 C 113.08 67.85 116.02 68.19 118.98 68.23 C 133.32 68.27 147.65 68.22 161.99 68.30 C 165.17 68.38 168.10 66.85 171.27 66.79 L 172.56 67.29 C 172.46 66.70 172.27 65.52 172.17 64.93 Z" />
</g>
<g id="#c43455ff">
<path fill="#c43455" opacity="1.00" d=" M 40.79 69.41 C 43.90 68.42 46.98 67.35 49.97 66.05 C 52.52 67.20 55.26 67.71 58.02 68.05 C 60.84 68.24 62.91 70.33 65.35 71.49 C 67.32 71.42 69.14 70.47 70.99 69.87 C 71.70 70.59 72.39 71.32 73.07 72.07 C 72.82 72.32 72.32 72.83 72.07 73.08 L 73.48 73.54 C 71.96 75.84 70.30 78.15 67.87 79.55 C 66.30 80.10 64.65 80.46 63.16 81.23 C 59.76 81.89 56.43 82.89 53.33 84.47 C 49.25 86.52 44.48 85.07 40.23 86.52 C 36.20 87.92 31.89 87.81 27.68 87.59 C 25.83 86.49 23.94 85.45 22.05 84.42 C 24.35 81.34 28.29 81.59 31.73 81.56 C 30.45 79.46 28.47 76.75 30.34 74.38 C 32.59 70.34 38.55 73.41 40.79 69.41 Z" />
</g>
<g id="#deaba8ff">
<path fill="#deaba8" opacity="1.00" d=" M 176.66 72.39 L 177.01 71.86 C 178.73 75.94 179.39 80.77 176.24 84.37 C 175.63 83.54 175.01 82.72 174.37 81.92 C 169.60 82.86 164.81 81.40 160.02 81.87 C 152.38 82.86 144.68 81.98 137.01 82.41 C 132.21 82.81 127.49 81.80 122.86 80.68 C 118.02 79.68 113.47 77.63 109.29 75.03 C 111.53 74.50 113.71 75.31 115.91 75.56 C 118.99 75.43 122.01 74.33 125.12 74.76 C 132.40 75.55 139.73 75.10 147.04 75.05 C 156.06 74.90 165.12 75.42 174.08 74.13 C 175.21 74.00 176.07 73.41 176.66 72.39 Z" />
</g>
<g id="#a73c57ff">
<path fill="#a73c57" opacity="1.00" d=" M 63.16 81.23 C 64.65 80.46 66.30 80.10 67.87 79.55 C 69.43 79.76 71.00 79.97 72.56 80.17 C 59.43 85.70 45.30 89.53 30.97 89.74 C 27.55 89.47 23.74 90.03 20.75 87.98 C 21.31 87.79 22.45 87.40 23.02 87.20 C 24.57 87.40 26.13 87.48 27.68 87.59 C 31.89 87.81 36.20 87.92 40.23 86.52 C 44.48 85.07 49.25 86.52 53.33 84.47 C 56.43 82.89 59.76 81.89 63.16 81.23 Z" />
</g>
<g id="#f3cbccff">
<path fill="#f3cbcc" opacity="1.00" d=" M 122.86 80.68 C 127.49 81.80 132.21 82.81 137.01 82.41 C 144.68 81.98 152.38 82.86 160.02 81.87 C 164.81 81.40 169.60 82.86 174.37 81.92 C 175.01 82.72 175.63 83.54 176.24 84.37 C 176.21 87.51 172.62 88.53 170.10 89.07 C 155.48 90.95 140.80 87.53 126.99 82.91 C 125.49 82.40 124.17 81.53 122.86 80.68 Z" />
</g>
<g id="#040404ff">
<path fill="#040404" opacity="1.00" d=" M 14.52 98.60 C 18.04 98.89 21.58 98.55 25.10 98.88 C 28.50 99.17 31.25 102.55 31.00 105.92 C 31.02 114.65 31.01 123.39 31.01 132.12 C 31.18 134.20 29.59 135.76 28.50 137.33 C 24.13 139.50 19.16 138.69 14.48 138.60 C 14.50 125.27 14.57 111.94 14.52 98.60 M 18.07 101.83 C 18.02 113.11 17.96 124.39 18.09 135.66 C 21.19 135.66 24.55 135.94 27.10 133.81 C 25.83 131.24 27.89 128.72 27.42 126.05 C 27.04 118.51 28.16 110.83 26.69 103.40 C 26.21 103.05 25.24 102.37 24.76 102.03 C 22.53 101.97 20.30 101.92 18.07 101.83 Z" />
<path fill="#040404" opacity="1.00" d=" M 36.93 103.93 C 38.11 103.99 39.30 104.06 40.49 104.13 C 40.42 105.57 40.35 107.01 40.28 108.45 C 39.23 108.39 38.18 108.34 37.14 108.20 C 37.03 106.78 36.96 105.36 36.93 103.93 Z" />
</g>
<g id="#080808ff">
<path fill="#080808" opacity="1.00" d=" M 108.21 98.52 C 109.36 98.66 110.51 98.81 111.66 98.96 C 111.63 112.23 111.53 125.50 111.73 138.77 C 110.54 138.75 109.35 138.74 108.17 138.73 C 108.14 125.33 108.06 111.92 108.21 98.52 Z" />
</g>
<g id="#060606ff">
<path fill="#060606" opacity="1.00" d=" M 128.12 98.60 C 129.23 98.65 130.35 98.69 131.47 98.74 C 131.64 104.57 131.55 110.41 131.53 116.24 C 134.68 116.17 137.83 116.11 140.98 116.23 C 141.12 110.39 140.97 104.55 141.08 98.71 C 142.28 98.70 143.48 98.68 144.68 98.64 C 144.90 111.97 144.68 125.30 144.78 138.63 C 143.56 138.69 142.34 138.75 141.12 138.80 C 140.90 132.32 141.21 125.84 140.90 119.36 C 137.79 119.48 134.67 119.47 131.55 119.49 C 131.60 125.88 131.56 132.27 131.56 138.66 C 130.39 138.73 129.23 138.80 128.06 138.87 C 127.98 125.45 127.87 112.02 128.12 98.60 Z" />
<path fill="#060606" opacity="1.00" d=" M 212.37 98.67 C 213.55 98.70 214.74 98.74 215.93 98.77 C 215.89 104.04 215.91 109.30 215.88 114.56 C 216.73 114.45 218.41 114.24 219.25 114.13 C 219.27 113.69 219.33 112.82 219.35 112.38 C 220.53 113.30 221.70 114.40 223.44 114.02 L 222.78 112.70 C 224.08 113.53 225.43 114.30 226.73 115.15 C 226.69 122.97 226.69 130.88 226.75 138.74 C 225.57 138.73 224.39 138.72 223.22 138.72 C 223.12 131.49 223.22 124.26 223.17 117.03 C 220.75 116.94 218.32 116.98 215.91 117.09 C 215.85 124.33 215.95 131.58 215.88 138.82 C 214.67 138.77 213.47 138.72 212.28 138.68 C 212.41 125.34 212.26 112.01 212.37 98.67 Z" />
<path fill="#060606" opacity="1.00" d=" M 170.88 114.10 C 175.28 114.04 179.85 113.33 184.12 114.70 C 184.12 122.75 184.12 130.80 184.14 138.85 C 181.70 138.64 179.25 137.80 176.83 138.56 C 174.54 139.00 171.27 139.77 170.11 137.09 C 169.87 133.70 169.95 130.29 170.01 126.90 C 169.90 125.74 170.76 124.31 172.00 124.23 C 174.95 123.90 177.93 124.10 180.89 124.11 C 180.96 121.66 181.00 119.21 181.12 116.76 C 178.57 116.67 176.02 116.66 173.46 116.75 C 173.59 118.16 173.64 119.58 173.72 120.99 C 172.77 120.92 170.88 120.78 169.93 120.70 C 170.70 119.75 172.86 117.73 170.10 118.25 C 170.29 117.22 170.69 115.14 170.88 114.10 M 173.28 126.80 C 173.28 129.82 173.27 132.83 173.27 135.85 C 175.83 135.77 178.39 135.71 180.95 135.72 C 180.95 132.81 180.96 129.89 180.99 126.97 L 181.34 127.11 L 179.82 126.47 L 180.02 126.99 C 177.77 126.95 175.52 126.88 173.28 126.80 Z" />
</g>
<g id="#030303ff">
<path fill="#030303" opacity="1.00" d=" M 190.11 98.70 C 191.19 98.74 192.27 98.74 193.35 98.72 C 193.17 111.96 193.22 125.21 193.32 138.46 C 192.28 138.63 191.23 138.80 190.19 138.97 C 189.82 125.56 189.95 112.12 190.11 98.70 Z" />
<path fill="#030303" opacity="1.00" d=" M 66.12 113.70 C 67.17 113.80 68.21 113.90 69.26 114.00 C 69.31 122.25 69.17 130.50 69.39 138.75 C 68.27 138.73 67.15 138.69 66.03 138.62 C 66.00 130.32 65.86 122.00 66.12 113.70 Z" />
</g>
<g id="#fefefeff">
<path fill="#fefefe" opacity="1.00" d=" M 18.07 101.83 C 20.30 101.92 22.53 101.97 24.76 102.03 C 25.24 102.37 26.21 103.05 26.69 103.40 C 28.16 110.83 27.04 118.51 27.42 126.05 C 27.89 128.72 25.83 131.24 27.10 133.81 C 24.55 135.94 21.19 135.66 18.09 135.66 C 17.96 124.39 18.02 113.11 18.07 101.83 Z" />
</g>
<g id="#050505ff">
<path fill="#050505" opacity="1.00" d=" M 65.94 103.95 C 67.11 104.00 68.27 104.06 69.44 104.13 C 69.40 105.50 69.36 106.87 69.35 108.23 C 68.29 108.32 67.23 108.42 66.17 108.52 C 66.07 106.99 66.03 105.47 65.94 103.95 Z" />
<path fill="#050505" opacity="1.00" d=" M 47.84 114.06 C 51.98 113.38 56.15 114.83 60.27 113.79 C 59.87 125.10 60.86 136.50 59.70 147.76 C 55.59 148.04 51.35 148.49 47.29 147.66 C 45.91 146.20 46.41 143.99 46.16 142.17 C 47.38 142.06 48.60 141.94 49.82 141.83 C 49.82 142.69 49.82 144.40 49.82 145.26 C 52.21 145.19 54.60 145.16 56.98 145.17 C 56.93 143.00 56.91 140.82 56.87 138.65 C 53.21 138.71 48.24 139.63 46.24 135.63 C 45.69 130.10 46.14 124.52 45.95 118.97 C 45.82 117.13 47.12 115.64 47.84 114.06 M 49.37 119.06 C 49.37 124.23 49.03 129.44 49.64 134.58 C 51.40 136.59 54.59 135.44 56.95 135.89 C 56.93 129.61 56.94 123.34 56.97 117.07 C 56.18 116.99 54.59 116.84 53.80 116.76 C 53.42 116.96 52.65 117.35 52.26 117.55 L 52.50 116.12 C 51.33 116.85 49.14 117.24 49.37 119.06 Z" />
</g>
<g id="#070707ff">
<path fill="#070707" opacity="1.00" d=" M 76.33 106.01 C 77.47 106.02 78.62 106.04 79.76 106.06 C 79.79 108.70 79.81 111.33 79.79 113.96 C 81.20 113.93 82.62 113.88 84.03 113.83 C 84.04 114.61 84.08 116.18 84.10 116.97 C 82.67 116.95 81.23 116.93 79.80 116.90 C 79.81 123.19 79.79 129.49 79.78 135.78 C 81.20 135.79 82.63 135.81 84.06 135.83 C 84.01 136.58 83.93 138.07 83.89 138.82 C 81.48 138.78 79.07 138.67 76.68 138.37 C 75.98 131.30 76.36 124.17 76.37 117.08 C 75.60 117.03 74.05 116.92 73.28 116.87 C 73.29 116.16 73.30 114.74 73.30 114.03 C 74.05 114.00 75.53 113.94 76.28 113.92 C 76.28 111.28 76.31 108.64 76.33 106.01 Z" />
<path fill="#070707" opacity="1.00" d=" M 200.24 106.07 C 201.42 106.06 202.60 106.06 203.79 106.05 C 203.79 108.68 203.74 111.31 203.74 113.94 C 205.16 113.93 206.58 113.93 208.01 113.93 C 208.01 114.70 208.02 116.23 208.03 117.00 C 206.58 116.94 205.13 116.89 203.69 116.86 C 203.79 123.19 203.70 129.53 203.77 135.87 C 205.19 135.85 206.61 135.84 208.03 135.83 C 208.03 136.57 208.02 138.03 208.02 138.77 C 205.56 138.84 203.10 138.75 200.67 138.35 C 199.79 131.30 200.46 124.17 200.27 117.09 C 199.48 117.00 197.89 116.83 197.10 116.74 C 197.22 115.67 197.34 114.61 197.47 113.55 C 198.41 113.78 199.34 114.03 200.28 114.28 C 200.21 111.54 200.20 108.81 200.24 106.07 Z" />
<path fill="#070707" opacity="1.00" d=" M 88.91 114.21 C 93.06 113.69 97.25 113.99 101.42 113.88 C 102.08 115.16 102.68 116.49 102.51 117.98 C 102.43 124.95 102.57 131.93 102.39 138.90 C 98.59 137.84 94.76 138.55 90.94 139.01 C 88.15 139.09 88.07 135.96 88.17 133.95 C 88.36 130.95 87.63 127.71 88.84 124.87 C 91.87 123.19 95.60 124.59 98.88 123.87 C 99.25 121.49 99.01 119.07 99.08 116.67 C 96.73 116.69 94.38 116.69 92.03 116.68 C 92.03 118.15 92.04 119.62 92.05 121.10 C 90.84 121.01 89.64 120.93 88.43 120.84 C 88.56 118.63 88.64 116.41 88.91 114.21 M 91.63 126.93 C 91.62 129.92 91.61 132.91 91.65 135.91 C 94.11 135.82 96.57 135.72 99.03 135.72 C 99.06 132.75 99.06 129.78 99.10 126.81 C 96.61 126.91 94.12 126.90 91.63 126.93 Z" />
<path fill="#070707" opacity="1.00" d=" M 152.12 114.04 C 156.13 113.73 160.17 113.87 164.17 114.17 C 164.90 118.05 164.81 122.06 164.45 125.98 C 161.53 128.13 157.44 126.65 154.04 126.90 C 154.00 129.93 154.00 132.96 154.00 135.99 C 156.37 135.97 158.75 135.96 161.13 135.98 C 161.16 134.41 161.21 132.83 161.25 131.26 C 162.37 131.25 163.48 131.23 164.60 131.22 C 164.43 133.73 165.65 137.45 162.59 138.68 C 159.41 138.83 156.22 138.74 153.04 138.68 C 151.67 138.74 150.34 137.44 150.71 136.00 C 150.74 129.02 150.36 122.01 150.95 115.05 C 151.24 114.80 151.83 114.30 152.12 114.04 M 154.02 116.66 C 154.02 119.14 154.01 121.61 154.06 124.09 C 156.44 124.04 158.83 124.08 161.21 124.12 C 161.17 121.62 161.18 119.12 161.23 116.63 C 158.82 116.69 156.42 116.73 154.02 116.66 Z" />
</g>
<g id="#000000ff">
<path fill="#000000" opacity="1.00" d=" M 37.11 113.87 C 37.91 113.86 39.52 113.83 40.32 113.82 C 40.20 122.13 40.38 130.44 40.22 138.74 C 39.39 138.73 37.74 138.71 36.91 138.70 C 37.14 130.43 36.91 122.15 37.11 113.87 Z" />
</g>
<g id="#fdfdfdff">
<path fill="#fdfdfd" opacity="1.00" d=" M 49.37 119.06 C 49.14 117.24 51.33 116.85 52.50 116.12 L 52.26 117.55 C 52.65 117.35 53.42 116.96 53.80 116.76 C 54.59 116.84 56.18 116.99 56.97 117.07 C 56.94 123.34 56.93 129.61 56.95 135.89 C 54.59 135.44 51.40 136.59 49.64 134.58 C 49.03 129.44 49.37 124.23 49.37 119.06 Z" />
</g>
<g id="#f8f8f8ff">
<path fill="#f8f8f8" opacity="1.00" d=" M 154.02 116.66 C 156.42 116.73 158.82 116.69 161.23 116.63 C 161.18 119.12 161.17 121.62 161.21 124.12 C 158.83 124.08 156.44 124.04 154.06 124.09 C 154.01 121.61 154.02 119.14 154.02 116.66 Z" />
</g>
<g id="#fbfbfbff">
<path fill="#fbfbfb" opacity="1.00" d=" M 173.28 126.80 C 175.52 126.88 177.77 126.95 180.02 126.99 L 179.82 126.47 L 181.34 127.11 L 180.99 126.97 C 180.96 129.89 180.95 132.81 180.95 135.72 C 178.39 135.71 175.83 135.77 173.27 135.85 C 173.27 132.83 173.28 129.82 173.28 126.80 Z" />
</g>
<g id="#fafafaff">
<path fill="#fafafa" opacity="1.00" d=" M 91.63 126.93 C 94.12 126.90 96.61 126.91 99.10 126.81 C 99.06 129.78 99.06 132.75 99.03 135.72 C 96.57 135.72 94.11 135.82 91.65 135.91 C 91.61 132.91 91.62 129.92 91.63 126.93 Z" />
</g>
<g id="#f1cdcbff">
<path fill="#f1cdcb" opacity="1.00" d=" M 41.21 151.51 C 41.92 151.26 42.62 151.01 43.33 150.77 C 45.72 151.95 48.45 151.67 51.03 151.95 C 51.38 151.89 52.07 151.75 52.42 151.69 C 58.03 156.39 66.25 155.64 72.29 159.64 C 64.33 160.64 56.80 156.44 48.88 157.80 C 40.28 159.06 31.52 157.23 22.97 158.97 C 20.78 159.46 18.55 159.06 16.40 158.61 C 17.43 153.29 23.09 151.00 27.94 150.68 C 32.37 150.59 36.90 150.27 41.21 151.51 Z" />
</g>
<g id="#8c374dff">
<path fill="#8c374d" opacity="1.00" d=" M 129.08 157.66 C 137.93 153.88 147.53 152.14 157.02 150.77 C 163.07 150.75 169.76 149.69 175.24 152.90 C 179.85 155.82 180.11 162.29 178.21 166.91 C 175.97 171.55 172.96 175.77 169.59 179.65 C 164.17 186.07 158.06 191.93 151.33 196.97 C 151.07 196.94 150.54 196.87 150.28 196.84 C 151.09 195.32 151.78 193.75 152.54 192.21 C 153.84 191.62 154.62 190.43 155.51 189.39 C 157.60 186.80 161.31 186.04 162.98 183.04 C 165.01 179.56 168.48 177.36 171.03 174.33 L 170.90 174.14 C 172.96 169.77 176.39 166.10 177.45 161.27 C 176.59 159.16 175.78 157.03 175.01 154.89 C 172.22 153.96 169.43 153.00 166.52 152.48 C 162.95 151.89 159.28 151.97 155.76 152.83 C 150.56 154.06 145.20 154.43 140.08 155.98 C 136.50 157.00 132.86 158.37 129.08 157.66 Z" />
<path fill="#8c374d" opacity="1.00" d=" M 31.76 185.92 C 36.83 185.69 38.74 191.15 43.02 192.76 C 45.26 195.87 48.96 197.09 52.25 198.72 C 55.34 201.23 58.76 203.42 62.75 204.15 C 63.90 205.43 65.05 206.71 66.17 208.03 C 53.14 203.67 41.31 195.74 31.76 185.92 Z" />
</g>
<g id="#c13555ff">
<path fill="#c13555" opacity="1.00" d=" M 155.76 152.83 C 159.28 151.97 162.95 151.89 166.52 152.48 C 168.05 153.77 169.62 155.02 171.21 156.24 C 170.18 156.62 169.15 157.00 168.13 157.36 C 168.64 157.60 169.66 158.07 170.17 158.31 C 167.58 161.03 164.74 163.60 162.94 166.96 C 161.71 169.50 158.88 170.36 156.68 171.82 C 154.39 173.08 152.48 175.03 149.99 175.91 C 146.35 176.47 142.63 176.39 138.97 176.01 C 134.81 175.56 131.18 173.35 127.48 171.59 C 124.53 170.17 120.87 170.31 118.47 167.84 C 118.80 166.62 119.09 165.39 119.37 164.16 C 121.90 162.22 124.72 160.76 127.63 159.47 C 127.90 159.01 128.46 158.10 128.74 157.64 C 128.82 157.64 128.99 157.66 129.08 157.66 C 132.86 158.37 136.50 157.00 140.08 155.98 C 145.20 154.43 150.56 154.06 155.76 152.83 Z" />
</g>
<g id="#a93349ff">
<path fill="#a93349" opacity="1.00" d=" M 166.52 152.48 C 169.43 153.00 172.22 153.96 175.01 154.89 C 175.78 157.03 176.59 159.16 177.45 161.27 C 176.39 166.10 172.96 169.77 170.90 174.14 L 171.03 174.33 C 168.48 177.36 165.01 179.56 162.98 183.04 C 161.31 186.04 157.60 186.80 155.51 189.39 C 154.62 190.43 153.84 191.62 152.54 192.21 C 151.83 192.26 150.42 192.36 149.71 192.41 C 149.61 192.76 149.40 193.47 149.30 193.82 C 148.51 193.97 147.71 194.12 146.92 194.27 C 147.06 197.43 143.76 198.34 141.37 199.17 C 137.28 200.41 132.07 202.40 128.90 198.34 C 128.33 198.70 127.76 199.07 127.19 199.44 C 125.17 198.78 123.13 198.18 121.11 197.52 C 117.30 196.40 114.96 192.66 111.04 191.71 C 107.70 190.78 105.99 187.58 103.77 185.22 C 101.59 182.65 98.52 181.11 96.08 178.85 C 96.30 177.31 96.74 175.81 97.14 174.31 C 104.98 171.85 111.41 166.36 119.37 164.16 C 119.09 165.39 118.80 166.62 118.47 167.84 C 120.87 170.31 124.53 170.17 127.48 171.59 C 131.18 173.35 134.81 175.56 138.97 176.01 C 142.63 176.39 146.35 176.47 149.99 175.91 C 152.48 175.03 154.39 173.08 156.68 171.82 C 158.88 170.36 161.71 169.50 162.94 166.96 C 164.74 163.60 167.58 161.03 170.17 158.31 C 169.66 158.07 168.64 157.60 168.13 157.36 C 169.15 157.00 170.18 156.62 171.21 156.24 C 169.62 155.02 168.05 153.77 166.52 152.48 Z" />
</g>
<g id="#e0abaaff">
<path fill="#e0abaa" opacity="1.00" d=" M 48.88 157.80 C 56.80 156.44 64.33 160.64 72.29 159.64 C 75.14 159.99 77.78 161.24 80.16 162.79 C 79.43 162.80 77.97 162.82 77.24 162.82 C 77.81 163.83 78.37 164.84 78.95 165.85 C 76.03 165.07 73.05 164.33 70.01 164.52 C 61.01 164.90 52.01 164.57 43.00 164.67 C 36.37 164.78 29.69 164.22 23.12 165.41 C 22.95 164.25 22.77 163.11 22.58 161.96 C 22.33 162.91 22.08 163.86 21.82 164.81 C 21.55 164.50 21.02 163.87 20.75 163.56 C 20.20 163.95 19.65 164.34 19.10 164.73 C 18.32 163.69 17.54 162.64 16.80 161.58 C 16.70 160.83 16.50 159.35 16.40 158.61 C 18.55 159.06 20.78 159.46 22.97 158.97 C 31.52 157.23 40.28 159.06 48.88 157.80 Z" />
</g>
<g id="#a23b55ff">
<path fill="#a23b55" opacity="1.00" d=" M 104.31 167.50 C 112.42 164.15 120.21 159.90 128.74 157.64 C 128.46 158.10 127.90 159.01 127.63 159.47 C 124.72 160.76 121.90 162.22 119.37 164.16 C 111.41 166.36 104.98 171.85 97.14 174.31 C 96.65 173.96 95.67 173.26 95.17 172.91 C 95.34 172.65 95.67 172.13 95.83 171.87 C 97.82 170.92 99.96 170.22 101.69 168.79 C 102.32 169.09 102.94 169.42 103.55 169.78 C 103.74 169.21 104.12 168.07 104.31 167.50 Z" />
</g>
<g id="#cc8f8eff">
<path fill="#cc8f8e" opacity="1.00" d=" M 16.80 161.58 C 17.54 162.64 18.32 163.69 19.10 164.73 C 19.65 164.34 20.20 163.95 20.75 163.56 C 21.02 163.87 21.55 164.50 21.82 164.81 C 22.08 163.86 22.33 162.91 22.58 161.96 C 22.77 163.11 22.95 164.25 23.12 165.41 C 29.69 164.22 36.37 164.78 43.00 164.67 C 52.01 164.57 61.01 164.90 70.01 164.52 C 73.05 164.33 76.03 165.07 78.95 165.85 C 78.37 164.84 77.81 163.83 77.24 162.82 C 77.97 162.82 79.43 162.80 80.16 162.79 C 84.96 164.69 89.87 166.58 94.10 169.59 C 90.52 171.02 86.71 169.75 83.02 169.77 C 69.68 169.80 56.35 169.90 43.01 169.79 C 36.11 169.59 28.91 171.56 22.27 168.78 C 21.30 169.24 20.29 169.59 19.34 170.10 C 17.71 167.54 16.67 164.65 16.80 161.58 Z" />
</g>
<g id="#bd6e6fff">
<path fill="#bd6e6f" opacity="1.00" d=" M 19.34 170.10 C 20.29 169.59 21.30 169.24 22.27 168.78 C 28.91 171.56 36.11 169.59 43.01 169.79 C 56.35 169.90 69.68 169.80 83.02 169.77 C 86.71 169.75 90.52 171.02 94.10 169.59 C 95.55 169.04 96.13 170.76 95.83 171.87 C 95.67 172.13 95.34 172.65 95.17 172.91 C 91.63 174.41 88.09 175.92 84.46 177.22 C 78.89 174.31 72.87 177.33 67.02 176.72 C 59.67 176.21 52.29 175.11 44.92 176.05 C 40.58 176.64 36.20 176.17 31.85 176.20 C 30.28 176.20 28.72 176.14 27.16 175.97 C 25.57 175.44 23.97 174.92 22.35 174.46 L 21.95 174.35 C 21.09 172.93 20.23 171.50 19.34 170.10 Z" />
</g>
<g id="#8b313cff">
<path fill="#8b313c" opacity="1.00" d=" M 84.46 177.22 C 88.09 175.92 91.63 174.41 95.17 172.91 C 95.67 173.26 96.65 173.96 97.14 174.31 C 96.74 175.81 96.30 177.31 96.08 178.85 C 98.52 181.11 101.59 182.65 103.77 185.22 C 105.99 187.58 107.70 190.78 111.04 191.71 C 114.96 192.66 117.30 196.40 121.11 197.52 C 123.13 198.18 125.17 198.78 127.19 199.44 C 127.76 199.07 128.33 198.70 128.90 198.34 C 132.07 202.40 137.28 200.41 141.37 199.17 C 143.76 198.34 147.06 197.43 146.92 194.27 C 147.71 194.12 148.51 193.97 149.30 193.82 C 149.40 193.47 149.61 192.76 149.71 192.41 C 150.42 192.36 151.83 192.26 152.54 192.21 C 151.78 193.75 151.09 195.32 150.28 196.84 C 149.80 197.37 148.84 198.44 148.36 198.98 C 147.87 199.25 146.87 199.80 146.37 200.07 C 141.53 202.57 137.28 206.31 131.88 207.64 C 126.03 209.03 120.33 210.93 114.63 212.82 C 110.93 212.93 107.24 213.30 103.57 213.77 C 90.95 214.48 78.08 212.73 66.27 208.14 C 70.13 207.81 74.01 207.72 77.89 207.80 C 77.06 205.16 76.54 202.32 75.00 199.97 C 71.81 197.65 68.03 195.98 65.86 192.48 C 67.28 192.16 68.70 191.84 70.13 191.53 C 69.57 187.96 67.62 184.92 65.30 182.25 C 66.27 181.87 67.25 181.50 68.24 181.15 C 73.67 179.97 79.23 179.18 84.46 177.22 Z" />
</g>
<g id="#c03452ff">
<path fill="#c03452" opacity="1.00" d=" M 27.16 175.97 C 28.72 176.14 30.28 176.20 31.85 176.20 C 32.01 177.35 32.17 178.51 32.33 179.66 C 37.18 179.41 42.15 179.79 46.30 182.55 L 45.02 182.82 C 45.70 183.72 46.38 184.63 47.06 185.54 C 47.82 185.08 48.58 184.63 49.34 184.17 C 50.49 185.51 51.92 186.70 52.62 188.36 C 52.88 190.17 52.69 192.01 52.62 193.84 C 53.79 194.07 54.96 194.31 56.12 194.55 C 54.82 195.92 53.55 197.33 52.25 198.72 C 48.96 197.09 45.26 195.87 43.02 192.76 C 38.74 191.15 36.83 185.69 31.76 185.92 L 31.71 185.59 C 31.79 181.65 27.11 179.96 27.16 175.97 Z" />
</g>
<g id="#b05259ff">
<path fill="#b05259" opacity="1.00" d=" M 31.85 176.20 C 36.20 176.17 40.58 176.64 44.92 176.05 C 52.29 175.11 59.67 176.21 67.02 176.72 C 72.87 177.33 78.89 174.31 84.46 177.22 C 79.23 179.18 73.67 179.97 68.24 181.15 C 64.13 181.57 60.00 181.92 55.86 181.86 C 52.66 181.72 49.44 181.90 46.30 182.55 C 42.15 179.79 37.18 179.41 32.33 179.66 C 32.17 178.51 32.01 177.35 31.85 176.20 Z" />
</g>
<g id="#e9d7d8ff">
<path fill="#e9d7d8" opacity="1.00" d=" M 151.33 196.97 C 158.06 191.93 164.17 186.07 169.59 179.65 C 169.63 180.38 169.69 181.83 169.73 182.55 C 167.20 185.01 165.50 188.28 162.50 190.24 C 160.50 191.52 158.88 193.27 157.50 195.18 C 164.28 196.72 171.30 197.84 177.20 201.79 C 179.07 203.11 178.49 205.55 178.68 207.52 C 173.17 211.60 166.08 212.63 159.40 212.72 C 162.22 210.56 165.53 209.22 168.56 207.41 C 169.65 206.90 170.28 205.44 169.64 204.36 C 167.91 200.76 163.82 199.53 160.36 198.24 C 160.01 198.67 159.31 199.54 158.97 199.97 C 158.50 199.66 157.58 199.03 157.11 198.72 C 156.63 198.88 155.67 199.20 155.19 199.37 C 153.91 198.55 152.64 197.72 151.33 196.97 Z" />
</g>
<g id="#9a3143ff">
<path fill="#9a3143" opacity="1.00" d=" M 55.86 181.86 C 60.00 181.92 64.13 181.57 68.24 181.15 C 67.25 181.50 66.27 181.87 65.30 182.25 C 67.62 184.92 69.57 187.96 70.13 191.53 C 68.70 191.84 67.28 192.16 65.86 192.48 C 68.03 195.98 71.81 197.65 75.00 199.97 C 76.54 202.32 77.06 205.16 77.89 207.80 C 74.01 207.72 70.13 207.81 66.27 208.14 L 66.17 208.03 C 65.05 206.71 63.90 205.43 62.75 204.15 C 64.37 202.86 66.02 201.59 67.68 200.33 C 66.56 198.85 65.44 197.37 64.32 195.89 C 64.35 197.68 64.33 199.48 64.35 201.28 C 63.10 200.37 60.94 199.96 60.90 198.08 C 61.09 195.87 62.78 194.18 63.89 192.36 C 62.74 192.09 61.60 191.81 60.46 191.52 C 60.24 187.77 58.29 184.60 55.86 181.86 Z" />
</g>
<g id="#ac324bff">
<path fill="#ac324b" opacity="1.00" d=" M 46.30 182.55 C 49.44 181.90 52.66 181.72 55.86 181.86 C 58.29 184.60 60.24 187.77 60.46 191.52 C 61.60 191.81 62.74 192.09 63.89 192.36 C 62.78 194.18 61.09 195.87 60.90 198.08 C 60.94 199.96 63.10 200.37 64.35 201.28 C 64.33 199.48 64.35 197.68 64.32 195.89 C 65.44 197.37 66.56 198.85 67.68 200.33 C 66.02 201.59 64.37 202.86 62.75 204.15 C 58.76 203.42 55.34 201.23 52.25 198.72 C 53.55 197.33 54.82 195.92 56.12 194.55 C 54.96 194.31 53.79 194.07 52.62 193.84 C 52.69 192.01 52.88 190.17 52.62 188.36 C 51.92 186.70 50.49 185.51 49.34 184.17 C 48.58 184.63 47.82 185.08 47.06 185.54 C 46.38 184.63 45.70 183.72 45.02 182.82 L 46.30 182.55 Z" />
</g>
<g id="#bf9097ff">
<path fill="#bf9097" opacity="1.00" d=" M 150.28 196.84 C 150.54 196.87 151.07 196.94 151.33 196.97 C 152.64 197.72 153.91 198.55 155.19 199.37 C 155.67 199.20 156.63 198.88 157.11 198.72 C 157.58 199.03 158.50 199.66 158.97 199.97 C 160.65 201.11 162.32 202.26 164.01 203.40 C 163.54 204.77 163.16 206.17 162.52 207.47 C 159.17 209.72 155.36 211.19 151.73 212.93 C 143.77 213.98 135.69 214.40 127.68 213.84 C 133.05 213.29 138.50 213.04 143.75 211.66 C 146.31 210.97 148.91 210.39 151.56 210.21 C 154.81 210.21 158.45 208.37 158.89 204.84 C 159.44 203.54 157.91 202.66 157.07 202.01 C 154.39 200.45 151.29 199.88 148.36 198.98 C 148.84 198.44 149.80 197.37 150.28 196.84 Z" />
</g>
<g id="#d2afb4ff">
<path fill="#d2afb4" opacity="1.00" d=" M 160.36 198.24 C 163.82 199.53 167.91 200.76 169.64 204.36 C 170.28 205.44 169.65 206.90 168.56 207.41 C 165.53 209.22 162.22 210.56 159.40 212.72 C 156.85 213.02 154.28 213.17 151.73 212.93 C 155.36 211.19 159.17 209.72 162.52 207.47 C 163.16 206.17 163.54 204.77 164.01 203.40 C 162.32 202.26 160.65 201.11 158.97 199.97 C 159.31 199.54 160.01 198.67 160.36 198.24 Z" />
</g>
<g id="#b17e84ff">
<path fill="#b17e84" opacity="1.00" d=" M 146.37 200.07 C 146.87 199.80 147.87 199.25 148.36 198.98 C 151.29 199.88 154.39 200.45 157.07 202.01 C 157.91 202.66 159.44 203.54 158.89 204.84 C 158.45 208.37 154.81 210.21 151.56 210.21 C 152.78 208.11 154.86 205.90 153.78 203.29 C 151.72 202.07 149.34 201.55 147.11 200.73 L 146.37 200.07 Z" />
</g>
<g id="#96575aff">
<path fill="#96575a" opacity="1.00" d=" M 131.88 207.64 C 137.28 206.31 141.53 202.57 146.37 200.07 L 147.11 200.73 C 147.86 201.50 148.60 202.30 149.33 203.10 C 148.91 204.69 148.51 206.29 148.11 207.90 C 145.04 209.07 141.90 210.07 138.67 210.65 C 130.74 212.05 122.72 213.80 114.63 212.82 C 120.33 210.93 126.03 209.03 131.88 207.64 Z" />
</g>
<g id="#9f7173ff">
<path fill="#9f7173" opacity="1.00" d=" M 147.11 200.73 C 149.34 201.55 151.72 202.07 153.78 203.29 C 154.86 205.90 152.78 208.11 151.56 210.21 C 148.91 210.39 146.31 210.97 143.75 211.66 C 138.50 213.04 133.05 213.29 127.68 213.84 C 119.66 214.22 111.58 214.32 103.57 213.77 C 107.24 213.30 110.93 212.93 114.63 212.82 C 122.72 213.80 130.74 212.05 138.67 210.65 C 141.90 210.07 145.04 209.07 148.11 207.90 C 148.51 206.29 148.91 204.69 149.33 203.10 C 148.60 202.30 147.86 201.50 147.11 200.73 Z" />
</g>
</svg>
